<?xml version="1.0" encoding="utf-8"?>
<!-- Generator: Adobe Illustrator 15.1.0, SVG Export Plug-In . SVG Version: 6.00 Build 0)  -->
<!DOCTYPE svg PUBLIC "-//W3C//DTD SVG 1.1//EN" "http://www.w3.org/Graphics/SVG/1.1/DTD/svg11.dtd">
<svg version="1.1" id="Layer_1" xmlns="http://www.w3.org/2000/svg" xmlns:xlink="http://www.w3.org/1999/xlink" x="0px" y="0px"
	 width="595.28px" height="841.89px" viewBox="0 0 595.28 841.89" enable-background="new 0 0 595.28 841.89" xml:space="preserve">
<path fill-rule="evenodd" clip-rule="evenodd" d="M-215.993,86.674c11.449,3.753,24.218,7.852,27.363,18.242
	c8.74,28.882-20.261,49.278,0,69.926c-9.587,15.749-14.053,36.617-21.282,54.725c-7.324,1.244-6.609-5.552-15.201-3.04
	c-1.276-12.425,10.009-12.288,6.081-27.362c-0.413-5.006-20.869-5.006-21.282,0c-3.319,12.441,18.651-0.41,12.161,15.201
	c-14.602,7.996-30.121-21.04-21.282-36.483c10.698-5.813,14.75,2.884,24.322,6.08c7.435-9.615-12.348-17.937-27.362-15.201
	c7.357-28.11,34.948-37.769,45.604-60.805C-201.115,95.511-217.154,97.969-215.993,86.674z"/>
<path fill-rule="evenodd" clip-rule="evenodd" d="M-164.308,211.324c-7.188-15.94-23.103-38.799-12.161-54.725
	c-0.448-6.646-7.66-6.527-15.202-6.08C-159.535,117.488-138.591,192.477-164.308,211.324z"/>
<path fill-rule="evenodd" clip-rule="evenodd" d="M-185.59,183.962c6.211,5.95,9.067,15.255,9.121,27.362
	c-6.081,0-12.161,0-18.242,0C-192.431,201.442-189.207,192.507-185.59,183.962z"/>
<path fill-rule="evenodd" clip-rule="evenodd" d="M-173.429,217.405c-4.578,8.599-15.757,10.594-27.362,12.161
	C-202.709,214.473-186.79,217.219-173.429,217.405z"/>
<g>
	<path fill-rule="evenodd" clip-rule="evenodd" fill="#A51E22" d="M-167.048,347.718c9.255,10.04,23.376,6.231,31.423,16.959
		c9.225,12.295-1.717,38.622-3.08,46.827c-0.264-8.765-0.464-32-7.544-38.371c-8.338-7.503-19.394-10.891-24.179-19.573
		c-4.833-8.771-9.438-26.988-8.061-34.481c0.09-0.045,1.531,9.017,4.539,16.072C-171.744,340.321-168.66,345.97-167.048,347.718z"/>
	<path fill-rule="evenodd" clip-rule="evenodd" fill="#A51E22" d="M-192.906,359.274c0,0,64.779,19.716,34.717,70.251
		c-26.882,45.188,3.645,53.474,3.645,53.474s21.417,7.822,27.75-11.736c1.621-5.004,0.795-13.901-4.029-19.184
		c-6.756-7.403-20.493-1.887-20.493-1.887s12.658-12.638,25.918-9.241c13.262,3.395,19.859,18.965,22.303,24.709
		c3.904,9.178,18.33,37.93-8.439,72.433c-18.258,23.533-34.925,25.486-55.569,25.486c-20.123,0-35.022-6.961-48.356-26.363
		c-12.13-17.65-18-52.575-9.344-75.79c10.688-28.662,36.117-58.579,40.336-63.105c4.22-4.527,10.379-15.499,1.207-26.031
		C-191.623,362.689-192.906,359.274-192.906,359.274z"/>
</g>
<g>
	<path fill-rule="evenodd" clip-rule="evenodd" fill="#A51E22" d="M277.472,161.73c22.771,26.312,57.516,16.33,77.313,44.446
		c22.699,32.225-4.219,101.219-7.573,122.723c-0.65-22.97-1.142-83.866-18.563-100.562c-20.514-19.664-47.716-28.54-59.491-51.295
		c-11.891-22.988-23.219-70.729-19.83-90.368c0.219-0.118,3.766,23.633,11.166,42.122
		C265.918,142.345,273.507,157.15,277.472,161.73z"/>
	<g>
		<path fill="#A51E22" d="M415.909,658.062c63.321-89.268,28.43-163.413,18.914-187.234c-6.011-15.056-22.244-55.86-54.873-64.757
			c-32.626-8.899-63.771,24.221-63.771,24.221s33.796-14.459,50.423,4.944c11.868,13.843,13.899,37.163,9.913,50.273
			c-2.106,6.932-4.908,12.513-8.153,17.049h0.871L415.909,658.062z"/>
		<path fill="#A51E22" d="M314.421,687.625l-10.667,39.028c29.557-2.157,56.308-9.833,83.494-35.201l-1.108-3.827H314.421z"/>
		<polygon fill="#A51E22" points="325.487,647.15 374.498,647.15 349.76,558.372 		"/>
	</g>
	<g>
		<path fill="#A51E22" d="M325.82,520.058c-10.13-0.893-17.584-3.789-17.584-3.789s-75.106-21.714-8.965-140.143
			c73.965-132.438-85.422-184.11-85.422-184.11s3.158,8.95,23.732,34.11c22.565,27.602,7.41,56.356-2.973,68.219
			c-10.378,11.865-72.947,90.268-99.244,165.387c-6.325,18.067-9.478,38.85-10.03,60.344c2.983-3.094,6.121-5.877,9.447-8.288
			c12.036-8.715,26.432-13.075,43.194-13.075c20.135,0,36.265,5.614,48.394,16.845c12.123,11.228,19.922,27.713,23.386,49.449
			l-33.713,8.463c-2.528-11.587-7.159-20.457-13.904-26.611s-14.8-9.229-24.162-9.229c-14.516,0-26.266,6.179-35.257,18.534
			c-5.496,7.557-9.303,17.556-11.443,29.964c5.714,28.066,15.164,53.762,27.08,72.23c8.712,13.5,17.699,24.689,27.123,33.862
			c4.214-0.813,8.528-2.267,12.938-4.372c7.164-3.421,13.556-8.102,19.172-14.029V645.3h-39.049v-38.147h73.465v89.829
			c-6.392,8.237-15.103,15.479-26.1,21.724c12.267,4.77,25.364,7.437,39.553,8.357L325.82,520.058z"/>
	</g>
</g>
</svg>
